<svg version="1.1" viewBox="0.0 0.0 560.5170603674541 560.6404199475065" fill="none" stroke="none" stroke-linecap="square" stroke-miterlimit="10" xmlns:xlink="http://www.w3.org/1999/xlink" xmlns="http://www.w3.org/2000/svg"><clipPath id="p.0"><path d="m0 0l560.5171 0l0 560.64044l-560.5171 0l0 -560.64044z" clip-rule="nonzero"/></clipPath><g clip-path="url(#p.0)"><path fill="#ffffff" d="m0 0l560.5171 0l0 560.64044l-560.5171 0z" fill-rule="evenodd"/><path fill="#ffffff" d="m1.5498688 280.32022l0 0c0 -154.38751 124.78212 -279.5433 278.70868 -279.5433l0 0c73.91812 0 144.80875 29.4518 197.07678 81.87634c52.268005 52.42453 81.631836 123.527466 81.631836 197.66698l0 0c0 154.38748 -124.782104 279.5433 -278.70862 279.5433l0 0c-153.92656 0 -278.70868 -125.15582 -278.70868 -279.5433z" fill-rule="evenodd"/><path fill="#ff9900" d="m130.32414 459.68137l45.028763 -56.15747l205.69052 0l45.028748 56.15747z" fill-rule="evenodd"/><path fill="#ff9900" d="m371.8727 169.54538l-80.76547 94.20471l-27.350952 0l-80.76547 -94.20471z" fill-rule="evenodd"/><path fill="#ff9900" d="m262.4475 283.17813l35.62204 0l0 158.39368l-35.62204 0z" fill-rule="evenodd"/><path fill="#000000" fill-opacity="0.0" d="m118.45276 100.94438l323.61154 0l-161.80576 179.37483l161.80576 179.37482l-323.61154 0l161.80579 -179.37482z" fill-rule="evenodd"/><path stroke="#000000" stroke-width="24.0" stroke-linejoin="round" stroke-linecap="butt" d="m118.45276 100.94438l323.61154 0l-161.80576 179.37483l161.80576 179.37482l-323.61154 0l161.80579 -179.37482z" fill-rule="evenodd"/></g></svg>